<svg xmlns="http://www.w3.org/2000/svg" xmlns:xlink="http://www.w3.org/1999/xlink" viewBox="0 0 99.816 113.625">
  <defs>
    <style>
      .cls-1 {
        fill: url(#linear-gradient);
      }
    </style>
    <linearGradient id="linear-gradient" x1="1.623" y1="-0.56" x2="0.251" y2="0.704" gradientUnits="objectBoundingBox">
      <stop offset="0" stop-color="#ffaa43"/>
      <stop offset="0.14" stop-color="#ffa044"/>
      <stop offset="0.253" stop-color="#ffa643"/>
      <stop offset="0.356" stop-color="#ffa543"/>
      <stop offset="0.531" stop-color="#ff9744"/>
      <stop offset="0.672" stop-color="#ff9844"/>
      <stop offset="0.794" stop-color="#ff9a44"/>
      <stop offset="1" stop-color="#ff4645"/>
    </linearGradient>
  </defs>
  <g id="Group_29" data-name="Group 29" transform="translate(-32.646 -0.047)">
    <path id="Path_1" data-name="Path 1" class="cls-1" d="M210.818,66.852c0,.559,0,1.147-.029,1.706a30.976,30.976,0,0,1-13.646,23.881,31.672,31.672,0,0,1-19.5,5c-1.323-.088-6.5-.235-7.264-1.412-1.059-1.588,5.97-10.293,7.235-12.264a30.755,30.755,0,0,0-19.969,28.821,2.229,2.229,0,0,1-.118,1.088c-2.47-3.353-4.088-6.5-7.647-9.088a44.439,44.439,0,0,0-11.264-5.647c-6.382-2.265-13.146-3.941-18.5-8.058C110,83.116,107.443,67.911,116.854,58.5a20.475,20.475,0,0,1,14.5-6c4.5,0,9.617,1.412,12.911,4.647-2.823,4.764-3.676,10.97,1.206,14.94a10.614,10.614,0,0,0,14.264-1.294A9.476,9.476,0,0,0,162,63.882c-.353-3.941-3.235-7.117-5.823-10.088-4.206-4.882-8.058-10.176-10.411-16.175-2.323-6-3.029-12.823-.941-18.91A26.922,26.922,0,0,1,154.852,5.945a42.884,42.884,0,0,1,7.5-4.264c.441-.206,8.235-2.617,7.676-1.176-.706,1.794-3.147,3.47-4.264,5.264C162.057,11.709,162.939,19,167.2,24.443c3.911,4.941,9.705,7.941,15.5,10.47,5.764,2.5,11.793,4.735,16.7,8.646A30.214,30.214,0,0,1,210.818,66.852Z" transform="translate(-78.357 0)"/>
  </g>
</svg>
